<svg id="Layer_1" data-name="Layer 1" xmlns="http://www.w3.org/2000/svg" viewBox="0 0 790 75"><defs><style>.cls-1{fill:#333;}.cls-2{fill:none;stroke:#fff;stroke-miterlimit:10;stroke-dasharray:3;}.cls-3{fill:#f06060;}.cls-4{fill:#504d56;}.cls-5{fill:#f3b562;}.cls-6{fill:#93b331;}.cls-7{fill:#ba3c34;}.cls-8{fill:#c2a023;}.cls-9{fill:#508828;}</style></defs><title>footer</title><rect class="cls-1" y="56" width="791" height="19"/><line class="cls-2" y1="65.5" x2="790" y2="65.5"/><path class="cls-3" d="M153.4,53.39v.11c0,.37.3.5.67.5h4.49A1.74,1.74,0,1,0,162,54l11.67.25a1.67,1.67,0,0,0,1.74,1.6,1.6,1.6,0,0,0,1.74-1.51h1.69c.37,0,.67-.47.67-.84v-.11a.67.67,0,0,0-.67-.67h-.23a2.87,2.87,0,0,0,.28-1.57,2.91,2.91,0,0,0-.36-1.57v0a.64.64,0,0,0,.2-.56.7.7,0,0,0-.68-.7l-6.4-.06c0-.06-1.69-2.66-3.16-3.36-1.1-.52-5.81-.56-7.64,0a10.62,10.62,0,0,0-5.44,4,7.67,7.67,0,0,0-1.26,3.81h-.08A.67.67,0,0,0,153.4,53.39ZM165,46.8a1.29,1.29,0,0,1,1.28-1.28h1.11a3,3,0,0,1,2.07,1l.56.72c.43.56.21,1-.49,1h-3.26A1.29,1.29,0,0,1,165,47Zm-5.77.39s.36-.51.5-.66a4.54,4.54,0,0,1,3-1H163a1.29,1.29,0,0,1,1.28,1.28V47A1.29,1.29,0,0,1,163,48.26h-2.5C159,48.26,158.77,47.94,159.21,47.19Z"/><rect class="cls-1" x="747.35" y="43.9" width="5.81" height="12.05"/><rect class="cls-1" x="743.46" y="39.83" width="13.53" height="4.08"/><rect class="cls-4" x="740.9" y="0.13" width="18.7" height="41.74" rx="5" ry="5"/><rect class="cls-1" x="742.05" y="1.08" width="16.41" height="39.83" rx="5" ry="5"/><circle class="cls-3" cx="750.14" cy="8.36" r="5.34"/><circle class="cls-5" cx="750.14" cy="21.03" r="5.34"/><circle class="cls-6" cx="750.14" cy="33.7" r="5.34"/><path class="cls-7" d="M746.3,8.36a5.34,5.34,0,0,1,4.59-5.28,5.34,5.34,0,1,0,0,10.57A5.34,5.34,0,0,1,746.3,8.36Z"/><path class="cls-8" d="M746.3,21a5.34,5.34,0,0,1,4.59-5.28,5.34,5.34,0,1,0,0,10.57A5.34,5.34,0,0,1,746.3,21Z"/><path class="cls-9" d="M746.3,33.7a5.34,5.34,0,0,1,4.59-5.28,5.34,5.34,0,1,0,0,10.57A5.34,5.34,0,0,1,746.3,33.7Z"/></svg>