<svg xmlns="http://www.w3.org/2000/svg" viewBox="0 0 78 55.33"><defs><style>.cls-1{fill:#333;}.cls-2{fill:#fff;}</style></defs><title>logoBlack</title><g id="Layer_2" data-name="Layer 2"><g id="Layer_1-2" data-name="Layer 1"><rect class="cls-1" width="78" height="55.33" rx="1" ry="1"/><path class="cls-2" d="M22.06,19.68a.64.64,0,0,1,.2-.48.67.67,0,0,1,.48-.19.67.67,0,0,1,.67.67V30.26a6.06,6.06,0,0,1-6.06,6.06,6.06,6.06,0,0,1-6.06-6.06,6.06,6.06,0,0,1,6.06-6.06A5.84,5.84,0,0,1,21.64,26l.42.42Zm0,10.59a4.71,4.71,0,0,0-4.71-4.72A4.71,4.71,0,0,0,14,33.6a4.7,4.7,0,0,0,6.67,0A4.54,4.54,0,0,0,22.06,30.26Z"/><path class="cls-2" d="M25.18,24.87a.67.67,0,1,1,1.34,0V26.4a6.61,6.61,0,0,1,4.72-2.2,5.75,5.75,0,0,1,2.32.42.88.88,0,0,1,.31.21A.68.68,0,0,1,33.38,26a.67.67,0,0,1-.3-.06,4.18,4.18,0,0,0-1.84-.37,4.73,4.73,0,0,0-4.72,4.72v5.39a.67.67,0,1,1-1.34,0Z"/><path class="cls-2" d="M38.08,21.28a.9.9,0,0,1-1.53.64.9.9,0,1,1,1.27-1.27A.87.87,0,0,1,38.08,21.28Zm-1.57,3.59a.67.67,0,0,1,.67-.67.67.67,0,0,1,.48.19.64.64,0,0,1,.2.48V35.65a.64.64,0,0,1-.2.48.67.67,0,0,1-.48.19.67.67,0,0,1-.67-.67Z"/><path class="cls-2" d="M51.5,19.68a.64.64,0,0,1,.2-.48.67.67,0,0,1,.48-.19.67.67,0,0,1,.67.67V30.26A6.06,6.06,0,1,1,42.51,26a6.06,6.06,0,0,1,8.57,0l.42.42Zm0,10.59a4.71,4.71,0,1,0-1.37,3.33A4.54,4.54,0,0,0,51.5,30.26Z"/><path class="cls-2" d="M64.1,33.72a.64.64,0,0,1,.48.2.67.67,0,0,1,.19.48.65.65,0,0,1-.17.47,6.06,6.06,0,0,1-10-4.6,6.06,6.06,0,1,1,12.12,0,.67.67,0,0,1-.67.67H56a5.07,5.07,0,0,0,1.36,2.66A4.54,4.54,0,0,0,60.65,35a4.51,4.51,0,0,0,3-1.11A.65.65,0,0,1,64.1,33.72Zm1.23-4.12A5,5,0,0,0,64,26.93a4.7,4.7,0,0,0-6.67,0A5.07,5.07,0,0,0,56,29.59Z"/></g></g></svg>